# xmcd
#
# Track frame offsets: 
#        150
#        9660
#        19584
#        28432
#        39008
#        47999
#        57075
#        67737
#        77089
#        85927
#        95788
#        106008
#        120142
#        131114
#        141965
#        149232
#        158611
#
# Disc length: 4428 seconds
#
# Revision: 0
# Processed by: cddbd v1.5.2PL0 Copyright (c) Steve Scherf et al.
# Submitted via: ExactAudioCopy v0.95b3
#
DISCID=de114a11
DTITLE=Roy Orbison  - Orbison  1955 - 1965 Disc 3
DYEAR=1900
DGENRE=
TTITLE0=Ooby Dooby
TTITLE1=Racker Tacker
TTITLE2=Blue Suede Shoes
TTITLE3=Brown Eyed Handsome Man
TTITLE4=St Louis Blues
TTITLE5=All By Myself
TTITLE6=Lawdy Miss Clawdy
TTITLE7=Jam
TTITLE8=Rock House
TTITLE9=Sining The Blues
TTITLE10=Pretend
TTITLE11=Rip It Up
TTITLE12=Trying To Get To You
TTITLE13=TK Blues
TTITLE14=Go! Go! Go!
TTITLE15=Bo Diddley
TTITLE16=Are You Ready ( Billy Pat, Jack and James Talk About The Teen K
TTITLE16=ings)
EXTD=
EXTT0=
EXTT1=
EXTT2=
EXTT3=
EXTT4=
EXTT5=
EXTT6=
EXTT7=
EXTT8=
EXTT9=
EXTT10=
EXTT11=
EXTT12=
EXTT13=
EXTT14=
EXTT15=
EXTT16=
PLAYORDER=
